<svg t="1701313725553" class="icon" viewBox="0 0 1024 1024" version="1.1" xmlns="http://www.w3.org/2000/svg" p-id="5630" width="64" height="64"><path d="M703.875089 627.120915l-78.884364-2.13223 2.132231 78.884363c2.13223 127.921582 108.733549 232.39067 236.65513 236.655131l78.884363 2.13223-2.13223-78.884363C936.263718 735.854464 831.79463 629.253146 703.875089 627.120915z" fill="#F8B64C" p-id="5631"></path><path d="M725.195352 669.761442l-55.431869-2.13223 2.13223 55.431869c2.13223 91.677746 78.884363 168.429879 170.562109 170.56211l55.43187 2.13223-2.132231-55.431869c-2.13223-91.677746-78.886404-168.429879-170.562109-170.56211z" fill="#FFD15C" p-id="5632"></path><path d="M1023.677003 620.724224c-10.659112-19.188033-25.584724-36.243836-40.508297-51.169449-38.376066-38.376066-85.281055-63.960791-136.450504-76.752133-95.940166-23.452494-202.541484 2.13223-277.163427 76.752133s-100.204627 181.221221-76.752133 277.163427c12.791342 49.037219 38.376066 98.072397 76.752133 136.448464 14.923572 14.923572 34.111606 29.849185 51.169449 40.508296-110.865779 4.264461-225.993978-36.243836-311.275033-121.52489-68.225252-68.225252-106.601318-151.374076-119.39266-238.787361-17.055803-125.789351 23.452494-255.843164 119.39266-351.78333S537.5754 175.130918 661.232521 192.186721c87.413285 12.791342 172.69434 51.169449 238.787361 119.39266 87.413285 83.150865 127.921582 198.281104 123.657121 309.144843z" fill="#FF7058" p-id="5633"></path><path d="M840.323552 622.856454C780.627221 258.281782 467.219958-10.352723 79.190752 0.306388L2.438619 2.438619 0.306388 79.190752C-10.352723 467.219958 258.281782 780.627221 622.856454 840.323552l217.467098-217.467098z" fill="#F2F2F2" p-id="5634"></path><path d="M456.558806 793.418564c53.299639 21.320264 108.733549 36.243836 166.297648 46.904988l215.334867-215.334867c-8.528922-57.5641-25.584724-112.998009-46.904988-166.297649L456.558806 793.418564zM332.901685 34.420034C254.017322 10.96754 168.736267-1.825842 79.190752 0.306388L2.438619 2.438619 0.306388 79.190752c-2.13223 89.545515 10.659112 174.82657 34.111606 253.710933L332.901685 34.420034z" fill="#40596B" p-id="5635"></path><path d="M622.856454 840.323552c21.320264 4.264461 44.772758 6.396691 66.093022 8.528921l157.768726-157.768726c-2.13223-23.452494-4.264461-44.772758-8.528921-66.093022L622.856454 840.323552z" fill="#F2F2F2" p-id="5636"></path><path d="M191.919427 356.994868a164.163378 164.163378 0 1 0 328.326755 0 164.163378 164.163378 0 1 0-328.326755 0Z" fill="#40596B" p-id="5637"></path><path d="M240.954605 356.994868a115.128199 115.128199 0 1 0 230.256399 0 115.128199 115.128199 0 1 0-230.256399 0Z" fill="#84DBFF" p-id="5638"></path><path d="M283.866507 300.92231c40.508297-40.508297 104.469088-40.508297 144.977385 0 38.376066 38.376066 40.508297 100.204627 4.26446 140.712924 2.13223-2.13223 4.264461-2.13223 4.264461-4.264461 44.772758-44.772758 44.772758-117.26043 0-162.033188s-117.26043-44.772758-162.033187 0-44.772758 117.26043 0 162.033188c2.13223 2.13223 4.264461 2.13223 4.26446 4.264461-34.113646-40.508297-34.113646-102.336857 4.262421-140.712924z" fill="#54C0EB" p-id="5639"></path></svg>